/* XPM */
static char *result[] = {
/* columns rows colors chars-per-pixel */
"32 32 11 1 ",
"  c #211F30",
". c #9C1B4D",
"X c #CC3048",
"o c #E44A4A",
"O c #28860F",
"+ c #72A11D",
"@ c #E1CA33",
"# c #F18B72",
"$ c #A4CC42",
"% c #F7EC8A",
"& c None",
/* pixels */
"&&&&&&&&&&&&&&&&&&&&&&&&&&&&&&&&",
"&&&&&&&&&&&&&&&&&&&&&&&&&&&&&&&&",
"&&&&&&&&&&&&&&&&&&&&&&&&&&&&&&&&",
"&&&&&&&&&&&&&&&&&&&&&&&&&&&&&&&&",
"&&&&&&&&&&&&&&&&&&&&&&&&&&&&&&&&",
"&&&&&&&&&&&&&&&&&&&&&&&&&&&&&&&&",
"&&&&&&&&&&&&&&&&&&&&&&&&&&&&&&&&",
"&&&&&&&&&&&&&&&&&&&&&&&&&&&&&&&&",
"&&&&&&&&&&&&&&&&&&&&&&&&&&&&&&&&",
"&&&&&&&&&&&&&   &   &&&&&&&&&&&&",
"&&&&&&&&&&&&& $+ $+ &&&&&&&&&&&&",
"&&&&&&&&&&&&&& O O &&&&&&&&&&&&&",
"&&&&&&&&&&&&&  X.X  &&&&&&&&&&&&",
"&&&&&&&&&&&& #ooo### &&&&&&&&&&&",
"&&&&&&&&&&& #o%ooo%o# &&&&&&&&&&",
"&&&&&&&&&&& ooXoooXoo &&&&&&&&&&",
"&&&&&&&&&&& oooo%oooo &&&&&&&&&&",
"&&&&&&&&&&& X%ooXoo%X &&&&&&&&&&",
"&&&&&&&&&&&& XoooooX &&&&&&&&&&&",
"&&&&&&&&&&&& X@ooo@X &&&&&&&&&&&",
"&&&&&&&&&&&&& XXXXX &&&&&&&&&&&&",
"&&&&&&&&&&&&&& XXX &&&&&&&&&&&&&",
"&&&&&&&&&&&&&&&   &&&&&&&&&&&&&&",
"&&&&&&&&&&&&&&&&&&&&&&&&&&&&&&&&",
"&&&&&&&&&&&&&&&&&&&&&&&&&&&&&&&&",
"&&&&&&&&&&&&&&&&&&&&&&&&&&&&&&&&",
"&&&&&&&&&&&&&&&&&&&&&&&&&&&&&&&&",
"&&&&&&&&&&&&&&&&&&&&&&&&&&&&&&&&",
"&&&&&&&&&&&&&&&&&&&&&&&&&&&&&&&&",
"&&&&&&&&&&&&&&&&&&&&&&&&&&&&&&&&",
"&&&&&&&&&&&&&&&&&&&&&&&&&&&&&&&&",
"&&&&&&&&&&&&&&&&&&&&&&&&&&&&&&&&"
};
